<?xml version="1.0" standalone="no"?>
<!DOCTYPE svg PUBLIC "-//W3C//DTD SVG 20010904//EN"
 "http://www.w3.org/TR/2001/REC-SVG-20010904/DTD/svg10.dtd">
<svg version="1.0" xmlns="http://www.w3.org/2000/svg"
 width="10000.000000pt" height="10000.000000pt" viewBox="0 0 500.000000 500.000000"
 preserveAspectRatio="xMidYMid meet">

<g transform="translate(0.000000,500.000000) scale(0.100000,-0.100000)"
fill="#000000" stroke="none">
<path d="M2490 3772 c-31 -45 -114 -160 -307 -426 -29 -39 -71 -98 -94 -131
-24 -33 -82 -114 -131 -180 -48 -66 -108 -149 -134 -184 l-46 -63 38 -54 c22
-29 77 -106 124 -171 46 -65 96 -134 110 -153 42 -56 149 -202 173 -237 12
-18 72 -100 132 -183 242 -333 316 -440 327 -472 8 -21 7 -37 -1 -55 -15 -33
-140 -193 -151 -193 -12 0 -52 49 -180 225 -61 83 -126 170 -145 195 -19 25
-68 92 -110 150 -41 58 -91 125 -110 150 -35 45 -96 128 -213 290 -34 47 -68
92 -75 100 -8 8 -33 42 -55 75 -23 33 -50 71 -60 85 -11 14 -32 44 -47 68 -57
86 -102 129 -149 141 -50 12 -141 14 -171 2 -17 -7 -17 -9 -3 -17 9 -5 41 -44
70 -86 29 -43 96 -136 148 -208 52 -72 119 -163 147 -203 29 -40 71 -99 94
-131 23 -33 74 -102 114 -155 39 -53 91 -124 116 -159 74 -105 121 -170 284
-392 44 -60 101 -140 128 -177 26 -37 68 -95 92 -128 25 -33 62 -84 82 -112
20 -29 39 -53 42 -53 3 0 80 102 171 227 91 125 183 252 206 282 22 31 85 117
139 191 54 74 115 158 135 185 20 28 57 77 81 110 24 33 135 186 248 340 112
154 237 325 277 381 41 55 74 106 74 113 0 10 -23 12 -94 9 -141 -5 -140 -4
-380 -345 -72 -103 -125 -175 -261 -358 -299 -403 -282 -383 -312 -365 -10 7
-46 51 -80 98 -35 48 -101 139 -148 202 -47 63 -96 129 -108 146 -12 18 -60
84 -107 148 -47 64 -104 142 -127 174 -23 31 -65 91 -94 132 -28 41 -60 84
-70 95 -33 37 -41 76 -26 126 12 41 45 91 157 244 20 28 65 88 99 135 112 153
214 280 225 280 6 0 27 -23 46 -51 19 -28 44 -63 55 -77 79 -104 349 -482 365
-513 7 -12 10 -41 7 -65 -5 -45 -40 -101 -204 -320 -124 -167 -131 -198 -56
-269 26 -25 51 -45 57 -45 6 0 29 26 51 58 22 31 45 64 52 72 7 8 39 51 71 95
217 297 273 379 278 405 10 49 14 43 -373 570 -280 380 -316 430 -338 457
l-21 25 -34 -50z"/>
</g>
</svg>
